<svg width="110" height="18" viewBox="0 0 110 18" fill="none" xmlns="http://www.w3.org/2000/svg">
<path d="M4.61607 0H0.320068V16.8H10.4001V12.648H4.61607V0Z" fill="#353535"/>
<path d="M16.4364 11.28C16.4364 13.056 17.0604 14.472 18.2844 15.552C19.5324 16.632 21.1404 17.16 23.0844 17.16C25.0284 17.16 26.6364 16.632 27.8604 15.552C29.1084 14.472 29.7324 13.056 29.7324 11.28V0H25.4364V10.872C25.4364 12.288 24.6444 12.984 23.0844 12.984C21.5244 12.984 20.7324 12.288 20.7324 10.872V0H16.4364V11.28Z" fill="#353535"/>
<path d="M49.8778 0L45.5818 7.176L41.3098 0H37.0138V16.8H41.3098V7.776L45.3658 14.496H45.7978L49.8778 7.752V16.8H54.1498V0H49.8778Z" fill="#353535"/>
<path d="M61.6185 16.8H65.9145V0H61.6185V16.8Z" fill="#353535"/>
<path d="M82.62 8.448L76.692 0H73.356V16.8H77.652V8.352L83.58 16.8H86.892V0H82.62V8.448Z" fill="#353535"/>
<path d="M109.231 16.8L103.687 0H98.4553L92.9113 16.8H97.5673L98.2873 14.376H103.879L104.599 16.8H109.231ZM101.071 4.968L102.775 10.68H99.3913L101.071 4.968Z" fill="#353535"/>
</svg>
